<?xml version="1.0" encoding="iso-8859-1"?>
<!-- Generator: Adobe Illustrator 19.0.0, SVG Export Plug-In . SVG Version: 6.00 Build 0)  -->
<svg version="1.1" id="Layer_1" xmlns="http://www.w3.org/2000/svg" xmlns:xlink="http://www.w3.org/1999/xlink"
	 viewBox="0 0 297 297" style="enable-background:new 0 0 297 297;" xml:space="preserve">
<g>
	<path style="fill:#E67E22;" d="M266.1,72.799H30.9c-4.694,0-8.5,3.806-8.5,8.5v179.624c0,16.805,13.671,30.477,30.476,30.477
		h191.248c16.805,0,30.476-13.672,30.476-30.477V81.299C274.6,76.604,270.794,72.799,266.1,72.799z"/>
	<path style="fill:#D36C1E;" d="M266.1,72.799H147.167v218.6h96.957c16.805,0,30.476-13.672,30.476-30.477V81.299
		C274.6,76.604,270.794,72.799,266.1,72.799z"/>
	<path style="fill:#FFCF6D;" d="M257.36,5.599H39.64C17.782,5.599,0,23.382,0,45.238v36.061c0,4.694,3.806,8.5,8.5,8.5h280
		c4.694,0,8.5-3.806,8.5-8.5V45.238C297,23.382,279.218,5.599,257.36,5.599z"/>
	<path style="fill:#FFCF6D;" d="M198.9,106.399H98.1c-4.694,0-8.5,3.806-8.5,8.5v33.6c0,4.694,3.806,8.5,8.5,8.5h100.8
		c4.694,0,8.5-3.806,8.5-8.5v-33.6C207.4,110.205,203.595,106.399,198.9,106.399z"/>
	<path style="fill:#EAB353;" d="M257.36,5.599H147.167v84.2H288.5c4.694,0,8.5-3.806,8.5-8.5V45.238
		C297,23.382,279.218,5.599,257.36,5.599z"/>
	<path style="fill:#EAB353;" d="M198.9,106.399h-51.733v50.6H198.9c4.694,0,8.5-3.806,8.5-8.5v-33.6
		C207.4,110.205,203.595,106.399,198.9,106.399z"/>
</g>
<g>
</g>
<g>
</g>
<g>
</g>
<g>
</g>
<g>
</g>
<g>
</g>
<g>
</g>
<g>
</g>
<g>
</g>
<g>
</g>
<g>
</g>
<g>
</g>
<g>
</g>
<g>
</g>
<g>
</g>
</svg>
